<?xml version="1.0" encoding="utf-8"?>
<!-- Generator: Adobe Illustrator 16.0.0, SVG Export Plug-In . SVG Version: 6.00 Build 0)  -->
<!DOCTYPE svg PUBLIC "-//W3C//DTD SVG 1.1//EN" "http://www.w3.org/Graphics/SVG/1.1/DTD/svg11.dtd">
<svg version="1.1" id="Layer_1" xmlns="http://www.w3.org/2000/svg" xmlns:xlink="http://www.w3.org/1999/xlink" x="0px" y="0px"
	 width="429.548px" height="67.487px" viewBox="0 0 429.548 67.487" enable-background="new 0 0 429.548 67.487"
	 xml:space="preserve">
<g>
	<path fill-rule="evenodd" clip-rule="evenodd" fill="#1FADB5" d="M33.182,0c10.955,4.311,20.91,10.599,31.395,15.838
		c1.039,0.519,1.496,1.195,1.457,2.301c-0.404,11.226,0.878,22.485-0.658,33.689c-6.94-1.057-12.37-5.614-18.717-8.058
		c-3.461-1.794-6.962-3.5-10.432-5.267c-1.73-0.881-3.557-1.693-4.173-3.824c-1.015-10.191-0.362-20.396-0.383-30.594
		C31.668,2.563,32.173,1.175,33.182,0z"/>
	<path fill-rule="evenodd" clip-rule="evenodd" fill="#34BFC2" d="M33.182,0c0.01,11.978,0.02,23.957,0.029,35.935
		c-3.944,3.967-9.455,5.213-14.027,8.096c-4.387,2.349-8.963,4.283-13.537,6.21c-4.606,1.94-4.871,1.698-4.973-3.388
		c-0.025-1.302,0.31-2.653-0.377-3.895c1.461-6.23,0.814-12.561,0.492-18.808c-0.262-5.069,0.451-8.611,5.777-10.854
		C15.703,9.451,23.862,3.55,33.182,0z"/>
	<path fill-rule="evenodd" clip-rule="evenodd" fill="#ACDFEB" d="M0.297,42.958c1.896,2.143,0.209,4.868,1.377,7.573
		c5.804-2.518,11.645-5.052,17.484-7.586c3.692,0.282,6.332,2.844,9.337,4.515c3.279,1.823,6.063,1.788,9.343-0.003
		c3.012-1.645,5.623-4.275,9.352-4.446c6.361,2.322,12.287,5.541,18.186,8.819c-6.066,3.073-12.133,6.147-18.199,9.221
		c-1.238-0.808-2.518-1.569-3.686-2.46c-7.1-5.416-14.055-5.287-20.941,0.376c-1.017,0.836-2.219,1.396-3.356,2.051
		c-5.599-2.924-11.2-5.845-16.796-8.774C-1.938,49.973,1.093,46.031,0.297,42.958z"/>
	<path fill-rule="evenodd" clip-rule="evenodd" fill="#49535C" d="M100.18,56.058c2.393-5.931,0.552-12.105,0.969-18.156
		c0.41-5.935,0.023-11.922,0.111-17.885c0.045-3.054-0.888-5.16-4.219-5.792c6.375,0,12.751,0,19.127,0
		c0.264,0.555,0.143,1.007-0.359,1.358c-2.225,1.416-6.192,0.234-6.808,3.899c-0.76,4.53-0.835,9.166,0.093,13.718
		c0.221,1.081,1.429,1.232,2.418,1.377c1.61,0.235,3.324,0.097,4.664,1.313c0.212,0.992,0.014,1.597-1.184,1.246
		c-7.772-0.128-7.888-0.126-7.723,7.696c0.079,3.731-0.938,7.592,0.918,11.188C105.678,58.163,102.779,58.177,100.18,56.058z"/>
	<path fill-rule="evenodd" clip-rule="evenodd" fill="#49535C" d="M392.354,25.949c4.962,1.65,8.129,6.406,7.861,11.201
		c-0.12,2.152-1.369,1.884-2.644,1.891c-4.476,0.027-8.953,0.097-13.426-0.019c-2.61-0.068-3.557,0.295-3.448,3.546
		c0.318,9.567,4.192,13.482,13.372,12.424c1.101-0.415,1.313,0.1,1.103,1.055c-9.374,4.725-18.378,0.413-20.354-9.749
		c-1.911-9.826,2.397-18.354,10.315-20.42c0.341,0.354,0.54,0.774,0.601,1.259c-0.028,1.04-0.567,1.876-1.078,2.733
		c-1.086,1.825-3.04,3.957-1.35,5.824c1.918,2.12,5.007,1.118,7.568,0.792c1.997-0.254,1.841-1.983,1.609-3.541
		c-0.316-2.132-1.964-3.873-1.788-6.15C391.005,26.028,391.429,25.493,392.354,25.949z"/>
	<path fill-rule="evenodd" clip-rule="evenodd" fill="#49535C" d="M154.352,25.949c4.957,1.645,8.087,6.333,7.863,11.167
		c-0.1,2.134-1.304,1.921-2.602,1.927c-4.467,0.02-8.945,0.208-13.396-0.056c-3.278-0.194-3.894,1.26-3.778,4.089
		c0.356,8.803,4.983,12.915,13.631,11.916c1.101-0.415,1.313,0.1,1.102,1.054c-9.373,4.725-18.377,0.413-20.352-9.749
		c-1.91-9.827,2.396-18.354,10.314-20.419c0.337,0.355,0.543,0.773,0.602,1.26c-0.029,1.039-0.568,1.875-1.079,2.732
		c-1.087,1.825-3.04,3.956-1.351,5.824c1.918,2.121,5.006,1.118,7.568,0.793c1.996-0.253,1.842-1.981,1.611-3.539
		c-0.316-2.132-1.963-3.873-1.79-6.149C153.002,26.032,153.426,25.496,154.352,25.949z"/>
	<path fill-rule="evenodd" clip-rule="evenodd" fill="#49535C" d="M329.172,56.046c-9.374,4.725-18.376,0.413-20.352-9.749
		c-1.91-9.827,2.396-18.354,10.314-20.419c0.341,0.354,0.54,0.774,0.601,1.26c-0.028,1.039-0.568,1.875-1.078,2.732
		c-1.087,1.825-3.04,3.957-1.35,5.824c1.918,2.12,5.006,1.118,7.568,0.792c1.997-0.254,1.841-1.983,1.61-3.54
		c-0.316-2.132-1.964-3.873-1.79-6.15c0.308-0.766,0.731-1.302,1.657-0.847c4.956,1.645,8.087,6.336,7.861,11.168
		c-0.1,2.134-1.306,1.92-2.604,1.925c-4.466,0.02-8.943,0.208-13.395-0.055c-3.278-0.194-3.893,1.262-3.777,4.089
		c0.357,8.803,4.983,12.915,13.631,11.915C329.171,54.577,329.383,55.091,329.172,56.046z"/>
	<path fill-rule="evenodd" clip-rule="evenodd" fill="#49535C" d="M243.172,56.046c-9.373,4.725-18.376,0.413-20.352-9.749
		c-1.91-9.827,2.396-18.354,10.314-20.419c0.34,0.354,0.539,0.775,0.602,1.26c-0.029,1.039-0.568,1.875-1.079,2.732
		c-1.087,1.825-3.04,3.957-1.35,5.824c1.919,2.12,5.007,1.118,7.568,0.792c1.997-0.254,1.841-1.983,1.61-3.541
		c-0.316-2.132-1.965-3.872-1.789-6.149c0.307-0.767,0.73-1.302,1.656-0.847c4.957,1.645,8.087,6.336,7.861,11.168
		c-0.1,2.134-1.306,1.92-2.604,1.925c-4.466,0.02-8.943,0.208-13.395-0.055c-3.279-0.194-3.893,1.262-3.777,4.089
		c0.357,8.803,4.983,12.915,13.631,11.915C243.171,54.577,243.383,55.091,243.172,56.046z"/>
	<path fill-rule="evenodd" clip-rule="evenodd" fill="#86D2E0" d="M19.192,61.016c4.572-6.694,13.483-9.463,20.069-5.824
		c2.833,1.566,7.002,1.612,7.914,5.858c-0.729,0.387-1.473,0.75-2.186,1.165C32.524,69.462,31.157,69.4,19.192,61.016z"/>
	<path fill-rule="evenodd" clip-rule="evenodd" fill="#4D565F" d="M348.482,31.125c-1.756,7.988-1.897,15.98-0.056,23.978
		c-2.771-0.837-4,1.81-6.563,2.976c0-6.438,0-12.579,0-18.72c0-6.976-0.079-13.952,0.033-20.926
		c0.057-3.509-0.426-6.561-4.964-7.878c3.784-1.165,7.077,0.387,9.908-1.43c1.809,3.564,0.417,7.365,0.797,11.038
		c0.286,2.774-0.382,5.605,0.418,8.359C348.378,29.359,348.331,30.258,348.482,31.125z"/>
	<path fill-rule="evenodd" clip-rule="evenodd" fill="#4B565E" d="M420.486,27.145c-4.193,3.649-5.916,8.256-5.554,13.778
		c0.175,2.654,0.101,5.332,0.014,7.994c-0.124,3.792-0.236,7.511,4.652,8.834c-4.693,0-9.386,0-14.772,0
		c4.381-1.531,4.584-4.692,4.444-8.183c-0.172-4.325-0.103-8.663-0.023-12.993c0.079-4.278,0.735-8.734-4.86-10.792
		c3.385-0.343,6.368,0.255,9.429-0.027c2.189-0.202,0.409,3.041,1.561,4.531c1.891-0.229,2.068-2.76,3.862-3.209
		C419.682,26.584,420.098,26.606,420.486,27.145z"/>
	<path fill-rule="evenodd" clip-rule="evenodd" fill="#4C565F" d="M194.193,28.993c0.822,0.541,1.199,2.897,2.706,0.553
		c1.195-1.86,2.921-3.067,5.069-3.816c6.729-2.348,11.851,0.774,12.16,7.797c0.248,5.654,0.188,11.329,0.063,16.99
		c-0.072,3.223,0.242,5.998,3.961,7.449c-2.205,0-4.409,0-6.613,0c-2.129,0-4.258,0-6.386,0c3.229-1.47,3.487-4.132,3.431-7.104
		c-0.104-5.497,0.037-10.997-0.059-16.494c-0.049-2.753,0.518-6.132-3.081-7.12c-3.462-0.95-6.089,0.855-7.991,3.748
		c-0.27,0.41-0.59,0.787-0.887,1.179C193.284,32.972,193.061,31.488,194.193,28.993z"/>
	<path fill-rule="evenodd" clip-rule="evenodd" fill="#4C565F" d="M280.193,28.992c0.822,0.54,1.198,2.896,2.705,0.553
		c1.195-1.86,2.92-3.066,5.067-3.815c6.728-2.349,11.846,0.77,12.164,7.787c0.247,5.438,0.121,10.895,0.086,16.343
		c-0.02,2.825-0.273,5.671,3.993,7.869c-5.373,0-9.213,0-13.054,0c3.255-1.229,3.48-3.911,3.427-6.878
		c-0.099-5.495,0.039-10.993-0.057-16.488c-0.049-2.752,0.515-6.131-3.084-7.116c-3.46-0.947-6.087,0.857-7.987,3.749
		c-0.27,0.41-0.59,0.786-0.887,1.178C279.284,32.972,279.061,31.488,280.193,28.992z"/>
	<path fill-rule="evenodd" clip-rule="evenodd" fill="#4D5760" d="M90.021,57.931c-3.51,0-7.653,0-11.853,0
		c6.118-4.647,5.663-26.876-0.985-32.463c3.684-0.151,7.006,1.668,10.096-0.389C89.35,36.164,85.311,47.227,90.021,57.931z"/>
	<path fill-rule="evenodd" clip-rule="evenodd" fill="#4B555E" d="M264.365,31.059c-2.424,7.281-1.064,14.794-1.366,22.206
		c-0.098,2.404,1.694,3.294,4.851,4.547c-5.663,0-9.792,0-14.099,0c5.72-4.842,4.872-27.653-1.146-31.859c2.907,0,5.671,0,8.435,0
		c2.015-0.493,1.599,1.1,1.572,2.034C262.573,29.445,262.994,30.48,264.365,31.059z"/>
	<path fill-rule="evenodd" clip-rule="evenodd" fill="#4B555E" d="M178.365,31.059c-2.424,7.281-1.091,14.793-1.351,22.206
		c-0.081,2.314,1.526,3.409,3.3,4.547c-4.129,0-8.256,0-12.563,0c5.72-4.842,4.872-27.653-1.146-31.859c2.907,0,5.672,0,8.436,0
		c2.014-0.493,1.598,1.1,1.572,2.034C176.573,29.445,176.994,30.48,178.365,31.059z"/>
	<path fill-rule="evenodd" clip-rule="evenodd" fill="#4A545D" d="M357.245,56.221c3.277-1.673,4.474-4.657,4.99-8.031
		c0.55-3.584,0.872-7.16,0.366-10.81c-1.249-9.016-2.515-10.232-11.402-10.392c7.621-3.755,13.627-1.459,16.393,6.268
		c3.766,10.52,0.206,20.665-8.359,23.823C358.233,57.575,357.258,58.013,357.245,56.221z"/>
	<path fill-rule="evenodd" clip-rule="evenodd" fill="#48525C" d="M194.193,28.993c-0.149,1.762,0.297,3.079,2.373,3.181
		c-1.875,6.625-0.875,13.406-1.071,20.121c-0.045,1.526,0.47,2.908,1.584,4.014c-2.724,1.959-5.38,2.154-7.931-0.311
		c1.705-8.404,1.08-16.89,0.447-25.306c-0.36-4.803-4.73-3.523-8.615-3.396C187.373,23.848,190.801,24.428,194.193,28.993z"/>
	<path fill-rule="evenodd" clip-rule="evenodd" fill="#48525C" d="M280.193,28.992c-0.149,1.763,0.297,3.08,2.373,3.181
		c-1.876,6.625-0.874,13.406-1.071,20.121c-0.045,1.526,0.47,2.908,1.584,4.014c-2.725,1.959-5.38,2.154-7.931-0.311
		c1.706-8.404,1.08-16.89,0.448-25.306c-0.361-4.803-4.731-3.523-8.616-3.397C273.373,23.848,276.8,24.428,280.193,28.992z"/>
	<path fill-rule="evenodd" clip-rule="evenodd" fill="#4A555E" d="M116.094,15.3c0.025-0.358,0.049-0.717,0.074-1.075
		c7.67,1.236,11.155,3.915,11.943,9.179c0.778,5.2-1.85,9.345-8.386,12.549c-1.546,0.757-1.073,1.192-0.438,2.038
		c-0.144,0.72-0.55,1.198-1.274,1.383c-1.008-0.746-2.015-1.492-3.021-2.238c0.358-0.478,0.717-0.956,1.076-1.434
		c3.264-4.218,6.033-8.426,3.883-14.289C119.061,18.985,116.414,17.917,116.094,15.3z"/>
	<path fill-rule="evenodd" clip-rule="evenodd" fill="#4A545D" d="M118.014,39.374c0.425-0.461,0.85-0.922,1.274-1.383
		c3.67,0.169,5.091,2.75,5.983,5.749c0.805,2.709,1.322,5.503,2.129,8.21c0.809,2.709,1.775,5.432,6.65,1.938
		c-2.436,4.104-4.867,4.516-7.508,4.03c-2.74-0.505-4.288-2.512-5.004-5.045C120.274,48.399,119.18,43.876,118.014,39.374z"/>
	<path fill-rule="evenodd" clip-rule="evenodd" fill="#4A555D" d="M88.424,14.789c-0.211,2.53-1.492,4.033-3.683,4.157
		c-2.485,0.142-4.128-1.492-4.135-3.89c-0.007-2.402,1.636-4.029,4.118-3.915C86.941,11.242,88.137,12.817,88.424,14.789z"/>
	<path fill-rule="evenodd" clip-rule="evenodd" fill="#4E5861" d="M422.275,25.322c2.938-0.768,5.355,0.091,6.742,2.755
		c0.874,1.678,0.742,3.578-0.951,4.961c-1.325,1.083-2.709,1.161-4.092,0.121c-1.646-1.238-1.47-2.812-0.726-4.444
		c0.266-0.584,0.618-1.129,0.932-1.692C423.777,26.196,421.876,27.048,422.275,25.322z"/>
	<path fill-rule="evenodd" clip-rule="evenodd" fill="#535D65" d="M100.18,56.058c2.677,1.5,5.346,1.538,8.008-0.038
		c1.15,0.432,2.299,0.863,4.607,1.729c-6.086,0-10.955,0-16.87,0C97.965,56.938,99.072,56.498,100.18,56.058z"/>
	<path fill-rule="evenodd" clip-rule="evenodd" fill="#515C64" d="M189.148,55.997c2.58,1.742,5.242,1.35,7.931,0.311
		c0.903,0.323,1.807,0.646,3.94,1.408c-5.555,0-9.848,0-15.223,0C187.409,56.889,188.279,56.443,189.148,55.997z"/>
	<path fill-rule="evenodd" clip-rule="evenodd" fill="#515C64" d="M275.148,55.997c2.579,1.742,5.242,1.35,7.931,0.311
		c0.901,0.322,1.803,0.644,3.94,1.408c-5.557,0-9.849,0-15.222,0C273.409,56.889,274.279,56.443,275.148,55.997z"/>
	<path fill-rule="evenodd" clip-rule="evenodd" fill="#616C73" d="M264.365,31.059c-1.182,0.454-2.191,0.669-2.245-1.162
		c-0.041-1.385,0.396-2.939-1.08-3.945c0.854-0.629,1.471-1.09,2.087,0.44c0.325,0.809-1.849,5.561,2.32,1.94
		C266.759,29.904,265.37,30.405,264.365,31.059z"/>
	<path fill-rule="evenodd" clip-rule="evenodd" fill="#616C73" d="M178.365,31.059c-1.182,0.454-2.191,0.669-2.245-1.162
		c-0.041-1.385,0.397-2.939-1.079-3.945c0.853-0.629,1.471-1.09,2.086,0.439c0.325,0.81-1.849,5.56,2.32,1.94
		C180.759,29.904,179.37,30.405,178.365,31.059z"/>
	<path fill-rule="evenodd" clip-rule="evenodd" fill="#576068" d="M157.172,56.046c-0.367-0.352-0.734-0.703-1.102-1.054
		c1.548-1.28,3.096-2.56,5.35-4.425C160.738,53.783,159.338,55.214,157.172,56.046z"/>
	<path fill-rule="evenodd" clip-rule="evenodd" fill="#576068" d="M243.172,56.046c-0.367-0.352-0.734-0.703-1.102-1.054
		c1.548-1.28,3.096-2.56,5.351-4.425C246.739,53.783,245.338,55.214,243.172,56.046z"/>
	<path fill-rule="evenodd" clip-rule="evenodd" fill="#576068" d="M329.172,56.046c-0.367-0.352-0.734-0.703-1.102-1.054
		c1.548-1.28,3.096-2.56,5.351-4.425C332.738,53.783,331.338,55.215,329.172,56.046z"/>
	<path fill-rule="evenodd" clip-rule="evenodd" fill="#576068" d="M395.173,56.046c-0.368-0.352-0.735-0.703-1.103-1.055
		c1.55-1.281,3.099-2.562,5.35-4.423C398.739,53.783,397.337,55.214,395.173,56.046z"/>
	<path fill-rule="evenodd" clip-rule="evenodd" fill="#586069" d="M147.165,27.024c-0.01-0.382-0.021-0.764-0.03-1.146
		c2.419-1.346,4.824-1.335,7.217,0.071c-0.398,0.383-0.798,0.766-1.197,1.149C151.15,27.667,149.153,27.752,147.165,27.024z"/>
	<path fill-rule="evenodd" clip-rule="evenodd" fill="#586069" d="M392.354,25.949c-0.4,0.383-0.8,0.767-1.2,1.15
		c-2.004,0.568-4.001,0.654-5.989-0.074c-0.01-0.382-0.021-0.765-0.03-1.147C387.555,24.532,389.961,24.542,392.354,25.949z"/>
	<path fill-rule="evenodd" clip-rule="evenodd" fill="#586069" d="M326.354,25.949c-0.399,0.383-0.799,0.766-1.199,1.149
		c-2.004,0.569-4.001,0.655-5.989-0.074c-0.01-0.382-0.021-0.764-0.03-1.146C321.555,24.531,323.961,24.542,326.354,25.949z"/>
	<path fill-rule="evenodd" clip-rule="evenodd" fill="#646C74" d="M357.245,56.221c0.662,0.286,1.325,0.572,1.987,0.857
		c-2.438,0.636-5.135,3.129-6.917-0.96C353.935,57.272,355.597,56.431,357.245,56.221z"/>
	<path fill-rule="evenodd" clip-rule="evenodd" fill="#586069" d="M240.354,25.949c-0.4,0.383-0.799,0.766-1.199,1.149
		c-2.004,0.569-4.001,0.654-5.989-0.074c-0.01-0.382-0.021-0.764-0.03-1.146C235.555,24.531,237.961,24.542,240.354,25.949z"/>
	<path fill-rule="evenodd" clip-rule="evenodd" fill="#626B72" d="M422.275,25.322c0.635,0.567,1.271,1.134,1.905,1.701
		c-1.231,0.041-2.463,0.081-3.694,0.122c-0.416-0.022-0.832-0.044-1.248-0.066C419.868,25.833,421.097,25.62,422.275,25.322z"/>
	<path fill-rule="evenodd" clip-rule="evenodd" fill="#666F76" d="M347.319,29.735c0.905-0.247,1.616-0.712,1.879-1.679
		c0.322-0.07,0.645-0.072,0.968-0.006c0.092,1.382-0.572,2.351-1.684,3.075C348.095,30.662,347.707,30.198,347.319,29.735z"/>
	<path fill-rule="evenodd" clip-rule="evenodd" fill="#85D2E0" d="M47.189,43.01c-0.789,0.578-1.535,1.23-2.376,1.722
		c-12.923,7.56-13.122,7.541-25.655-1.786c4.399-2.908,9.104-5.203,14.053-7.01C38.061,37.917,42.851,40.018,47.189,43.01z"/>
</g>
</svg>
